<mxfile host="app.diagrams.net" modified="2024-04-30T17:28:24.137Z" agent="Mozilla/5.0 (Windows NT 10.0; Win64; x64) AppleWebKit/537.36 (KHTML, like Gecko) Chrome/124.0.0.0 Safari/537.36" version="24.3.1" etag="JyxwT_eKUiBRB6uggAJU" type="github">
  <diagram name="Page-1" id="a8xANqkdr-wko-sgh57g">
    <mxGraphModel>
      <root>
        <mxCell id="0" />
        <mxCell id="1" parent="0" />
      </root>
    </mxGraphModel>
  </diagram>
</mxfile>
